<svg width="20" height="23" viewBox="0 0 20 23" fill="none" xmlns="http://www.w3.org/2000/svg">
<g clip-path="url(#clip0_74_219)">
<path d="M17.4998 0.871094H7.4998C6.12146 0.871094 4.9998 2.07343 4.9998 3.55089V7.12395C5.51147 7.12395 5.9823 6.9185 6.35813 6.5737C6.6073 6.34502 6.9148 6.23068 7.2223 6.23068C7.5298 6.23068 7.8373 6.34502 8.08646 6.5737C8.4623 6.9185 8.93313 7.12395 9.4448 7.12395C9.95646 7.12395 10.4273 6.9185 10.8031 6.5737C11.0523 6.34502 11.3598 6.23068 11.6673 6.23068C11.9748 6.23068 12.2823 6.34502 12.5315 6.5737C12.9073 6.9185 13.3781 7.12395 13.8898 7.12395C14.4015 7.12395 14.8723 6.9185 15.2481 6.5737C15.4973 6.34502 15.8048 6.23068 16.1123 6.23068C16.4198 6.23068 16.7273 6.34502 16.9765 6.5737C17.3523 6.9185 17.8231 7.12395 18.3348 7.12395V8.91048C17.7556 8.91048 17.1865 8.75862 16.6681 8.47992L16.6656 10.1289C16.6673 14.3594 15.6873 18.2674 14.9906 20.5131C14.9906 20.5149 14.9898 20.522 14.989 20.5238H20.0015V3.55089C20.0015 2.07343 18.8798 0.871094 17.5015 0.871094H17.4998ZM14.9823 9.77248L14.5873 9.45894C13.7623 8.72557 12.564 8.72557 11.739 9.45894C11.2331 9.90915 10.5065 9.90915 9.9998 9.45894C9.1748 8.72557 7.97646 8.72557 7.15146 9.45894C6.64563 9.90915 5.91896 9.90915 5.4123 9.45894C4.58813 8.72557 3.3898 8.72468 2.56396 9.45894L2.1548 9.83054L2.14896 10.2361C2.08646 14.8096 0.539798 19.8369 0.00146484 20.8999V22.3086H12.5665L12.7831 21.769C12.874 21.543 15.0015 16.1718 15.0006 10.2021L14.984 9.77248H14.9823ZM7.98813 19.6297H6.2498C6.36563 19.2277 7.03063 17.7949 7.3123 15.4483L7.0673 15.6787L5.83313 14.7167C7.01146 13.5742 7.78563 12.4835 7.78563 12.4835H9.16646C9.16646 16.0566 8.2473 18.6399 7.98813 19.6297Z" fill="#717179"/>
</g>
<defs>
<clipPath id="clip0_74_219">
<rect width="20" height="21.4384" fill="white" transform="translate(0 0.871094)"/>
</clipPath>
</defs>
</svg>
