<svg width="20" height="20" viewBox="0 0 20 20" fill="none" xmlns="http://www.w3.org/2000/svg">
<g clip-path="url(#clip0_74_233)">
<g clip-path="url(#clip1_74_233)">
<path d="M9.87766 4.2325C10.6868 3.475 11.831 2.26583 12.2893 1.1125C12.5018 0.578333 12.0752 0 11.5002 0H6.50016C5.92516 0 5.4985 0.5775 5.711 1.1125C6.16933 2.26583 7.3135 3.475 8.12266 4.2325C3.641 4.89833 -0.166504 10.515 -0.166504 15C-0.166504 17.7575 2.076 20 4.8335 20H13.1668C15.9243 20 18.1668 17.7575 18.1668 15C18.1668 10.515 14.3593 4.89833 9.87766 4.2325ZM7.87016 11.4675L10.4052 11.89C11.5227 12.0758 12.3343 13.0342 12.3343 14.1675C12.3343 15.5458 11.2127 16.6675 9.83433 16.6675V17.5008C9.83433 17.9608 9.461 18.3342 9.001 18.3342C8.541 18.3342 8.16766 17.9608 8.16766 17.5008V16.6675H7.94433C7.05433 16.6675 6.22516 16.1892 5.77933 15.4183C5.54933 15.02 5.68516 14.5108 6.0835 14.28C6.48016 14.0492 6.991 14.185 7.22183 14.5842C7.37016 14.8408 7.64766 15.0008 7.94433 15.0008H9.83433C10.2935 15.0008 10.6677 14.6267 10.6677 14.1675C10.6677 13.8525 10.4418 13.5858 10.131 13.5342L7.596 13.1117C6.4785 12.9258 5.66683 11.9675 5.66683 10.8342C5.66683 9.45583 6.7885 8.33417 8.16683 8.33417V7.50083C8.16683 7.04083 8.54016 6.6675 9.00016 6.6675C9.46016 6.6675 9.8335 7.04083 9.8335 7.50083V8.33417H10.0568C10.946 8.33417 11.776 8.81333 12.2218 9.58417C12.4518 9.9825 12.316 10.4917 11.9177 10.7225C11.5202 10.9533 11.0102 10.8175 10.7793 10.4183C10.6302 10.1608 10.3535 10.0017 10.0568 10.0017H8.16683C7.70766 10.0017 7.3335 10.3758 7.3335 10.835C7.3335 11.15 7.55933 11.4167 7.87016 11.4683V11.4675Z" fill="#717179"/>
</g>
</g>
<defs>
<clipPath id="clip0_74_233">
<rect width="20" height="20" fill="white"/>
</clipPath>
<clipPath id="clip1_74_233">
<rect width="20" height="20" fill="white" transform="translate(-1)"/>
</clipPath>
</defs>
</svg>
