<svg width="20" height="20" viewBox="0 0 20 20" fill="none" xmlns="http://www.w3.org/2000/svg">
<g clip-path="url(#clip0_74_207)">
<g clip-path="url(#clip1_74_207)">
<g clip-path="url(#clip2_74_207)">
<path d="M11.2499 1.7625V1.25C11.2499 0.918479 11.1182 0.600537 10.8838 0.366116C10.6494 0.131696 10.3315 0 9.99994 0C9.66842 0 9.35048 0.131696 9.11606 0.366116C8.88164 0.600537 8.74994 0.918479 8.74994 1.25V1.7625C7.16024 1.97716 5.65503 2.60642 4.38555 3.58705C3.11606 4.56769 2.12703 5.86516 1.51781 7.3491C0.908593 8.83305 0.700655 10.4512 0.914887 12.041C1.12912 13.6307 1.75798 15.1361 2.73828 16.4058C2.39324 16.6894 2.11738 17.0479 1.93169 17.4541C1.74599 17.8603 1.65533 18.3035 1.66661 18.75C1.66661 19.0815 1.79831 19.3995 2.03273 19.6339C2.26715 19.8683 2.58509 20 2.91661 20C3.24813 20 3.56607 19.8683 3.80049 19.6339C4.03491 19.3995 4.16661 19.0815 4.16661 18.75C4.15387 18.6262 4.18479 18.5018 4.25402 18.3983C4.32325 18.2948 4.42645 18.2188 4.54578 18.1833C6.11951 19.3618 8.03265 19.9986 9.99869 19.9986C11.9647 19.9986 13.8779 19.3618 15.4516 18.1833C15.5714 18.2183 15.6752 18.2942 15.7449 18.3977C15.8146 18.5012 15.8459 18.6258 15.8333 18.75C15.8333 19.0815 15.965 19.3995 16.1994 19.6339C16.4338 19.8683 16.7518 20 17.0833 20C17.4148 20 17.7327 19.8683 17.9672 19.6339C18.2016 19.3995 18.3333 19.0815 18.3333 18.75C18.3446 18.3035 18.2539 17.8603 18.0682 17.4541C17.8825 17.0479 17.6067 16.6894 17.2616 16.4058C18.2419 15.1361 18.8708 13.6307 19.085 12.041C19.2992 10.4512 19.0913 8.83305 18.4821 7.3491C17.8729 5.86516 16.8838 4.56769 15.6143 3.58705C14.3449 2.60642 12.8396 1.97716 11.2499 1.7625ZM3.33328 10.8333C3.33328 9.51479 3.72427 8.22586 4.45681 7.12953C5.18935 6.0332 6.23055 5.17872 7.44872 4.67414C8.66689 4.16955 10.0073 4.03753 11.3005 4.29476C12.5938 4.552 13.7816 5.18694 14.714 6.11929C15.6463 7.05164 16.2813 8.23952 16.5385 9.53273C16.7957 10.8259 16.6637 12.1664 16.1591 13.3846C15.6546 14.6027 14.8001 15.6439 13.7037 16.3765C12.6074 17.109 11.3185 17.5 9.99994 17.5C8.23244 17.498 6.5379 16.795 5.28809 15.5452C4.03828 14.2954 3.33526 12.6008 3.33328 10.8333Z" fill="#717179"/>
<path d="M16.25 0.001608C15.9185 0.001608 15.6005 0.133304 15.3661 0.367724C15.1317 0.602145 15 0.920087 15 1.25161C15 1.58313 15.1317 1.90107 15.3661 2.13549C15.6005 2.36991 15.9185 2.50161 16.25 2.50161C16.4159 2.4887 16.5826 2.51247 16.7384 2.57122C16.8941 2.62997 17.0349 2.72227 17.151 2.84157C17.267 2.96087 17.3554 3.10424 17.4098 3.26151C17.4642 3.41879 17.4833 3.58611 17.4658 3.75161C17.4658 4.08313 17.5975 4.40107 17.832 4.63549C18.0664 4.86991 18.3843 5.00161 18.7158 5.00161C19.0474 5.00161 19.3653 4.86991 19.5997 4.63549C19.8341 4.40107 19.9658 4.08313 19.9658 3.75161C19.9851 3.25688 19.9025 2.76347 19.723 2.30203C19.5436 1.84059 19.2711 1.42099 18.9226 1.0693C18.5742 0.717609 18.1571 0.441343 17.6973 0.257668C17.2375 0.0739929 16.7449 -0.0131657 16.25 0.001608Z" fill="#717179"/>
<path d="M2.534 3.75161C2.5165 3.58611 2.53564 3.41879 2.59005 3.26151C2.64447 3.10424 2.73283 2.96087 2.84886 2.84157C2.9649 2.72227 3.10577 2.62997 3.26147 2.57122C3.41718 2.51247 3.58391 2.4887 3.74983 2.50161C4.08135 2.50161 4.39929 2.36991 4.63371 2.13549C4.86813 1.90107 4.99983 1.58313 4.99983 1.25161C4.99983 0.920087 4.86813 0.602145 4.63371 0.367724C4.39929 0.133304 4.08135 0.001608 3.74983 0.001608C3.25494 -0.0131657 2.76231 0.0739929 2.30253 0.257668C1.84276 0.441343 1.42567 0.717609 1.07718 1.0693C0.728694 1.42099 0.456257 1.84059 0.276798 2.30203C0.0973388 2.76347 0.0146928 3.25688 0.0339954 3.75161C0.0339954 4.08313 0.165691 4.40107 0.400112 4.63549C0.634532 4.86991 0.952475 5.00161 1.284 5.00161C1.61552 5.00161 1.93346 4.86991 2.16788 4.63549C2.4023 4.40107 2.534 4.08313 2.534 3.75161Z" fill="#717179"/>
<path d="M11.2749 10.3145V7.08203C11.2749 6.75051 11.1432 6.43257 10.9088 6.19815C10.6744 5.96373 10.3564 5.83203 10.0249 5.83203C9.69338 5.83203 9.37544 5.96373 9.14102 6.19815C8.9066 6.43257 8.7749 6.75051 8.7749 7.08203V10.6595C8.775 11.1015 8.95065 11.5254 9.26324 11.8379L10.7574 13.332C10.9932 13.5597 11.3089 13.6857 11.6367 13.6829C11.9644 13.68 12.2779 13.5486 12.5097 13.3168C12.7414 13.085 12.8729 12.7715 12.8757 12.4438C12.8786 12.116 12.7526 11.8003 12.5249 11.5645L11.2749 10.3145Z" fill="#717179"/>
</g>
</g>
</g>
<defs>
<clipPath id="clip0_74_207">
<rect width="20" height="20" fill="white"/>
</clipPath>
<clipPath id="clip1_74_207">
<rect width="20" height="20" fill="white"/>
</clipPath>
<clipPath id="clip2_74_207">
<rect width="20" height="20" fill="white"/>
</clipPath>
</defs>
</svg>
