<svg width="10" height="10" viewBox="0 0 10 10" fill="none" xmlns="http://www.w3.org/2000/svg">
<path d="M2.53271 9.37521C2.53286 9.20951 2.5988 9.05064 2.71605 8.93354L5.91271 5.73688C6.00947 5.64015 6.08623 5.5253 6.13859 5.3989C6.19096 5.2725 6.21791 5.13703 6.21791 5.00021C6.21791 4.86339 6.19096 4.72792 6.13859 4.60152C6.08623 4.47512 6.00947 4.36028 5.91271 4.26354L2.72021 1.06896C2.60637 0.951084 2.54337 0.793208 2.54479 0.629335C2.54622 0.465462 2.61195 0.308704 2.72783 0.192824C2.84371 0.0769439 3.00047 0.0112133 3.16434 0.00978925C3.32821 0.00836524 3.48609 0.0713617 3.60396 0.185211L6.79646 3.37729C7.22573 3.8074 7.46682 4.39025 7.46682 4.99792C7.46682 5.60559 7.22573 6.18844 6.79646 6.61854L3.5998 9.81521C3.51252 9.90255 3.40132 9.96208 3.28023 9.98629C3.15915 10.0105 3.03361 9.99829 2.91946 9.95122C2.80531 9.90415 2.70765 9.82432 2.63882 9.72181C2.56999 9.61929 2.53307 9.49869 2.53271 9.37521Z" fill="#222222"/>
</svg>
