<svg width="12" height="12" viewBox="0 0 12 12" fill="none" xmlns="http://www.w3.org/2000/svg">
<path d="M6 0C2.6915 0 0 2.6915 0 6C0 9.3085 2.6915 12 6 12C9.3085 12 12 9.3085 12 6C12 2.6915 9.3085 0 6 0ZM7.8535 7.1465C8.049 7.342 8.049 7.658 7.8535 7.8535C7.756 7.951 7.628 8 7.5 8C7.372 8 7.244 7.951 7.1465 7.8535L6 6.707L4.8535 7.8535C4.756 7.951 4.628 8 4.5 8C4.372 8 4.244 7.951 4.1465 7.8535C3.951 7.658 3.951 7.342 4.1465 7.1465L5.293 6L4.1465 4.8535C3.951 4.658 3.951 4.342 4.1465 4.1465C4.342 3.951 4.658 3.951 4.8535 4.1465L6 5.293L7.1465 4.1465C7.342 3.951 7.658 3.951 7.8535 4.1465C8.049 4.342 8.049 4.658 7.8535 4.8535L6.707 6L7.8535 7.1465Z" fill="#D2D2D2"/>
</svg>
