<svg width="12" height="12" viewBox="0 0 12 12" fill="none" xmlns="http://www.w3.org/2000/svg">
<g clip-path="url(#clip0_48_81)">
<path d="M6 0C2.6915 0 0 2.6915 0 6C0 9.3085 2.6915 12 6 12C9.3085 12 12 9.3085 12 6C12 2.6915 9.3085 0 6 0ZM6 10.5C3.519 10.5 1.5 8.481 1.5 6C1.5 3.519 3.519 1.5 6 1.5C8.481 1.5 10.5 3.519 10.5 6C10.5 8.481 8.481 10.5 6 10.5ZM8 5V7C8 7.5525 7.5525 8 7 8H5C4.4475 8 4 7.5525 4 7V5C4 4.4475 4.4475 4 5 4H7C7.5525 4 8 4.4475 8 5Z" fill="#222222"/>
</g>
<defs>
<clipPath id="clip0_48_81">
<rect width="12" height="12" fill="white"/>
</clipPath>
</defs>
</svg>
