<svg width="12" height="12" viewBox="0 0 12 12" fill="none" xmlns="http://www.w3.org/2000/svg">
<g clip-path="url(#clip0_48_69)">
<path d="M11.4918 11.0072C11.2844 11.0072 11.0321 10.9036 10.7648 10.7941C10.436 10.6595 10.0633 10.5069 9.65958 10.5069C9.25587 10.5069 8.88314 10.6595 8.55438 10.7941C8.28707 10.9036 8.03425 11.0072 7.8274 11.0072C7.62055 11.0072 7.36773 10.9036 7.10042 10.7941C6.77166 10.6595 6.39892 10.5069 5.99521 10.5069C5.5915 10.5069 5.21877 10.6595 4.89001 10.7941C4.69614 10.8736 4.51028 10.9497 4.3439 10.9857L6.21855 6.74758L9.80898 8.38659C10.0043 8.47614 10.2122 8.52067 10.42 8.52067C10.6519 8.52067 10.8832 8.46514 11.0971 8.35507C11.5043 8.14544 11.7886 7.76521 11.8765 7.31293C12.4301 4.46368 11.0771 1.67897 8.58536 0.54127C6.0202 -0.629949 2.95439 0.178547 1.29508 2.46495C1.02078 2.84318 0.931343 3.32048 1.05076 3.77476C1.16717 4.21803 1.46896 4.57925 1.87916 4.76637L5.30921 6.33233L3.35111 10.7595C3.04383 10.635 2.70057 10.5069 2.33134 10.5069C1.92763 10.5069 1.5549 10.6595 1.22613 10.7941C0.958824 10.9036 0.706505 11.0072 0.499153 11.0072C0.223351 11.0072 -0.000488281 11.2313 -0.000488281 11.5075C-0.000488281 11.7837 0.223351 12.0078 0.499153 12.0078C0.902864 12.0078 1.2756 11.8552 1.60436 11.7206C1.87167 11.6111 2.12399 11.5075 2.33134 11.5075C2.53869 11.5075 2.79101 11.6111 3.05832 11.7206C3.38708 11.8552 3.75982 12.0078 4.16353 12.0078C4.56724 12.0078 4.93997 11.8552 5.26873 11.7206C5.53604 11.6111 5.78836 11.5075 5.99571 11.5075C6.20306 11.5075 6.45538 11.6111 6.72269 11.7206C7.05146 11.8552 7.42419 12.0078 7.8279 12.0078C8.23161 12.0078 8.60434 11.8552 8.93311 11.7206C9.20041 11.6111 9.45323 11.5075 9.66008 11.5075C9.86694 11.5075 10.1198 11.6111 10.3871 11.7206C10.7158 11.8552 11.0886 12.0078 11.4923 12.0078C11.7681 12.0078 11.9919 11.7837 11.9919 11.5075C11.9919 11.2313 11.7676 11.0072 11.4918 11.0072Z" fill="#05153B"/>
</g>
<defs>
<clipPath id="clip0_48_69">
<rect width="12" height="12" fill="white"/>
</clipPath>
</defs>
</svg>
