<svg width="12" height="12" viewBox="0 0 12 12" fill="none" xmlns="http://www.w3.org/2000/svg">
<g clip-path="url(#clip0_42_64)">
<path d="M11.7815 10.7226L9.45873 8.39906C11.1967 6.07667 10.7228 2.78517 8.40025 1.04731C6.07767 -0.690552 2.78589 -0.216694 1.04789 2.1057C-0.690122 4.42808 -0.216224 7.71959 2.10636 9.45745C3.97205 10.8534 6.53454 10.8534 8.40025 9.45745L10.724 11.781C11.016 12.073 11.4895 12.073 11.7815 11.781C12.0735 11.489 12.0735 11.0156 11.7815 10.7236L11.7815 10.7226ZM5.27267 9.00898C3.20847 9.00898 1.53512 7.33577 1.53512 5.27174C1.53512 3.20771 3.20847 1.53451 5.27267 1.53451C7.33687 1.53451 9.01022 3.20771 9.01022 5.27174C9.00803 7.33484 7.33596 9.00678 5.27267 9.00898Z" fill="#9C9C9C"/>
</g>
<defs>
<clipPath id="clip0_42_64">
<rect width="12" height="12" fill="white"/>
</clipPath>
</defs>
</svg>
