<svg width="14" height="14" viewBox="0 0 14 14" fill="none" xmlns="http://www.w3.org/2000/svg">
<g clip-path="url(#clip0_34_390)">
<path d="M8.3125 6.804L5.83333 9.28317C5.61575 9.50017 5.31533 9.625 5.0085 9.625H4.66667V9.28317C4.66667 8.97167 4.788 8.67883 5.0085 8.45833L7.48767 5.97917L8.3125 6.804ZM8.92092 4.54592L8.3125 5.15433L9.13733 5.97917L9.74575 5.37075C9.97325 5.14325 9.97325 4.77342 9.74575 4.54592C9.52525 4.32483 9.14083 4.32483 8.92092 4.54592ZM14 2.91667V11.0833C14 12.6916 12.6916 14 11.0833 14H2.91667C1.30842 14 0 12.6916 0 11.0833V2.91667C0 1.30842 1.30842 0 2.91667 0H11.0833C12.6916 0 14 1.30842 14 2.91667ZM10.5712 3.72108C9.90967 3.06017 8.757 3.06017 8.09608 3.72108L4.18367 7.6335C3.74325 8.07392 3.5 8.66017 3.5 9.28317V10.2083C3.5 10.5309 3.76133 10.7917 4.08333 10.7917H5.0085C5.6315 10.7917 6.21775 10.549 6.65817 10.108L10.5706 6.19558C11.2531 5.51308 11.2537 4.40358 10.5712 3.72108Z" fill="#717179"/>
</g>
<defs>
<clipPath id="clip0_34_390">
<rect width="14" height="14" fill="white"/>
</clipPath>
</defs>
</svg>
