<svg width="15" height="15" viewBox="0 0 15 15" fill="none" xmlns="http://www.w3.org/2000/svg" preserveAspectRatio="xMidYMid meet">
<g clip-path="url(#clip0_34_304)">
<path d="M10 4.375C10 5.06563 9.44063 5.625 8.75 5.625C8.05937 5.625 7.5 5.06563 7.5 4.375C7.5 3.68438 8.05937 3.125 8.75 3.125C9.44063 3.125 10 3.68438 10 4.375ZM14.0625 11.25H13.125V10.3125C13.125 9.795 12.7056 9.375 12.1875 9.375C11.6694 9.375 11.25 9.795 11.25 10.3125V11.25H10.3125C9.79438 11.25 9.375 11.67 9.375 12.1875C9.375 12.705 9.79438 13.125 10.3125 13.125H11.25V14.0625C11.25 14.58 11.6694 15 12.1875 15C12.7056 15 13.125 14.58 13.125 14.0625V13.125H14.0625C14.5806 13.125 15 12.705 15 12.1875C15 11.67 14.5806 11.25 14.0625 11.25ZM10 9.375L6.92312 6.29812C6.03375 5.40875 4.59125 5.40875 3.70187 6.29812L1.875 8.125V3.4375C1.875 2.57562 2.57625 1.875 3.4375 1.875H9.6875C10.5487 1.875 11.25 2.57562 11.25 3.4375V7.1875C11.25 7.705 11.6694 8.125 12.1875 8.125C12.7056 8.125 13.125 7.705 13.125 7.1875V3.4375C13.125 1.5425 11.5831 0 9.6875 0H3.4375C1.54188 0 0 1.5425 0 3.4375V9.6875C0 11.5825 1.54188 13.125 3.4375 13.125H7.1875C7.70563 13.125 8.125 12.705 8.125 12.1875V11.875C8.125 10.8394 8.96438 10 10 10V9.375Z" fill="#717179"/>
</g>
<defs>
<clipPath id="clip0_34_304">
<rect width="15" height="15" fill="white"/>
</clipPath>
</defs>
</svg>
