<svg width="15" height="15" viewBox="0 0 15 15" fill="none" xmlns="http://www.w3.org/2000/svg">
<g clip-path="url(#clip0_34_354)">
<path d="M9.39812 17C8.7525 17 8.10625 16.7544 7.61437 16.2624C7.1375 15.7861 6.875 15.1523 6.875 14.4779C6.875 13.8035 7.1375 13.1703 7.61437 12.6934L10.2475 10.0607C10.4919 9.81628 10.8869 9.81628 11.1312 10.0607C11.3756 10.3051 11.3756 10.7001 11.1312 10.9445L8.49813 13.5772C8.2575 13.8179 8.125 14.1379 8.125 14.4779C8.125 14.8179 8.2575 15.138 8.49813 15.3786C8.99563 15.8749 9.80313 15.8743 10.2994 15.3786L13.6556 12.0221C13.7819 11.8958 13.7819 11.6896 13.6556 11.5633C13.5338 11.4414 13.32 11.4408 13.1969 11.5633L10.4425 14.3179C10.1981 14.5623 9.80312 14.5623 9.55875 14.3179C9.31437 14.0735 9.31437 13.6785 9.55875 13.4341L12.3131 10.6795C12.9075 10.0857 13.9438 10.0844 14.5394 10.6795C15.1525 11.2933 15.1525 12.2927 14.5394 12.9059L11.1831 16.2624C10.6912 16.7544 10.045 17 9.39875 17H9.39812ZM6.0375 9.75315C5.71875 9.58563 5.43438 9.35499 5.18 9.10059L0.185 4.10455C0.073125 4.42583 0 4.76586 0 5.12526V10.7507C0 12.4765 1.39938 13.876 3.125 13.876H5.67688C5.80125 13.0972 6.16188 12.3777 6.73063 11.8089L8.63 9.90941C7.84375 10.2144 6.94 10.2257 6.03813 9.75315H6.0375ZM14.815 4.10455C14.9269 4.42583 15 4.76586 15 5.12526V9.45687C14.1725 8.9087 13.0956 8.83682 12.2056 9.25185L12.1331 9.32061C12.0938 9.27248 12.0588 9.2206 12.0144 9.17622C11.53 8.69181 10.8469 8.53554 10.2275 8.69243L14.815 4.10455ZM14.1531 2.99883L8.82563 8.32678C8.47125 8.68056 7.98562 8.85745 7.49937 8.85807C7.01375 8.85807 6.5275 8.68118 6.17312 8.32678L0.846875 2.99821C1.4175 2.38753 2.22312 2 3.125 2H11.875C12.7769 2 13.5831 2.38753 14.1531 2.99821V2.99883Z" fill="#717179"/>
</g>
<defs>
<clipPath id="clip0_34_354">
<rect width="15" height="15" fill="white"/>
</clipPath>
</defs>
</svg>
