<svg width="15" height="15" viewBox="0 0 15 15" fill="none" xmlns="http://www.w3.org/2000/svg">
<g clip-path="url(#clip0_34_347)">
<path d="M15 3.89981C15 8.67481 8.66871 14.9998 3.89996 14.9998C2.85621 14.9998 1.88121 14.6061 1.16246 13.8873L0.537464 13.1686C-0.187536 12.4436 -0.187536 11.2186 0.568714 10.4623C0.587464 10.4436 2.09371 9.2873 2.09371 9.2873C2.84371 8.57481 4.02496 8.57481 4.76871 9.2873L5.68121 10.0186C7.68122 9.16856 9.09997 7.74356 10.0125 5.67481L9.28747 4.76231C8.56872 4.01856 8.56872 2.83105 9.28747 2.0873C9.28747 2.0873 10.4437 0.581055 10.4625 0.562305C11.2187 -0.193945 12.4437 -0.193945 13.2 0.562305L13.8562 1.13105C14.6062 1.8748 15 2.84981 15 3.89356V3.89981Z" fill="#717179"/>
</g>
<defs>
<clipPath id="clip0_34_347">
<rect width="15" height="15" fill="white"/>
</clipPath>
</defs>
</svg>
