<svg width="18" height="18" viewBox="0 0 18 18" fill="none" xmlns="http://www.w3.org/2000/svg">
<path d="M17.4256 12.7309L15.9114 6.8463C15.6458 6.90018 15.3721 6.92823 15.0909 6.92823C14.5441 6.92823 14.0235 6.81973 13.5453 6.6271L15.1416 12.8328H2.3498L4.0587 6.22338C4.55101 4.03059 6.48071 2.49984 8.75054 2.49984C9.55315 2.49984 10.3207 2.69912 10.998 3.05191C10.995 2.99065 10.9883 2.93087 10.9883 2.86887C10.9883 2.13597 11.189 1.44957 11.5336 0.854693C10.6728 0.487136 9.72919 0.285645 8.75054 0.285645C5.42374 0.285645 2.5967 2.5301 1.88285 5.70895L0.0389344 12.8409C-0.0751915 13.359 0.0650416 13.9258 0.414133 14.3561C0.770683 14.796 1.30029 15.0477 1.86942 15.0477H4.95903C5.37898 16.7401 6.9111 17.9999 8.75129 17.9999C10.5915 17.9999 12.1236 16.7401 12.5435 15.0477H15.6227C16.2112 15.0477 16.7528 14.782 17.1071 14.32C17.4107 13.9251 17.5263 13.4394 17.4592 12.9575C17.4562 12.8829 17.445 12.8069 17.4256 12.7316V12.7309ZM12.4801 2.86887C12.4801 1.44441 13.6512 0.285645 15.0909 0.285645C16.5305 0.285645 17.7016 1.44441 17.7016 2.86887C17.7016 4.29334 16.5305 5.4521 15.0909 5.4521C13.6512 5.4521 12.4801 4.29334 12.4801 2.86887Z" fill="#05153B"/>
<ellipse cx="15.1656" cy="2.71417" rx="2.8345" ry="2.71417" fill="#FF0000"/>
</svg>
