<svg width="14" height="14" viewBox="0 0 14 14" fill="none" xmlns="http://www.w3.org/2000/svg">
<path d="M13.9449 9.92637L12.2725 4.03684C11.9364 2.8521 11.2039 1.81122 10.1917 1.08C9.17942 0.348783 7.94565 -0.0307188 6.68686 0.00194525C5.42808 0.0346093 4.21669 0.47756 3.24566 1.26024C2.27463 2.04293 1.59981 3.12032 1.32868 4.32082L0.0355157 10.0004C-0.0129647 10.2135 -0.0117978 10.4346 0.0389302 10.6472C0.0896582 10.8598 0.188652 11.0586 0.328603 11.2288C0.468555 11.3991 0.64589 11.5365 0.847518 11.6309C1.04915 11.7253 1.26992 11.7743 1.49354 11.7743H3.96817C4.15825 12.416 4.55677 12.9801 5.10372 13.3815C5.65066 13.7829 6.31641 14 7.00068 14C7.68496 14 8.3507 13.7829 8.89765 13.3815C9.44459 12.9801 9.84312 12.416 10.0332 11.7743H12.5066C12.7368 11.7743 12.9639 11.7223 13.1702 11.6225C13.3764 11.5227 13.5562 11.3776 13.6955 11.1987C13.8348 11.0198 13.9299 10.8118 13.9733 10.5911C14.0166 10.3704 14.0065 10.1429 13.9449 9.92637ZM1.86566 10.0249L3.07818 4.69693C3.2639 3.87827 3.72479 3.14378 4.3875 2.6104C5.05021 2.07701 5.87665 1.77538 6.73524 1.75352C7.59384 1.73165 8.43526 1.99082 9.12555 2.48976C9.81583 2.9887 10.3153 3.69873 10.5445 4.50683L12.1142 10.0249H1.86566Z" fill="#717179"/>
</svg>
