<svg width="9" height="18" viewBox="0 0 9 18" fill="none" xmlns="http://www.w3.org/2000/svg">
<path d="M8.59656 17.1385C8.71372 17.0223 8.80671 16.884 8.87018 16.7317C8.93364 16.5794 8.96631 16.416 8.96631 16.251C8.96631 16.086 8.93364 15.9226 8.87018 15.7703C8.80671 15.6179 8.71372 15.4797 8.59656 15.3635L2.87156 9.63849C2.7544 9.52229 2.66141 9.38404 2.59795 9.23171C2.53449 9.07939 2.50181 8.91601 2.50181 8.75099C2.50181 8.58598 2.53449 8.42259 2.59795 8.27027C2.66141 8.11795 2.7544 7.97969 2.87156 7.86349L8.59656 2.13849C8.71372 2.02229 8.80671 1.88404 8.87018 1.73171C8.93364 1.57939 8.96631 1.41601 8.96631 1.25099C8.96631 1.08598 8.93364 0.922594 8.87018 0.77027C8.80671 0.617946 8.71372 0.479694 8.59656 0.363491C8.36236 0.130677 8.04554 0 7.71531 0C7.38508 0 7.06826 0.130677 6.83406 0.363491L1.09656 6.10099C0.394307 6.80412 -0.00014019 7.75724 -0.00014019 8.75099C-0.00014019 9.74474 0.394307 10.6979 1.09656 11.401L6.83406 17.1385C7.06826 17.3713 7.38508 17.502 7.71531 17.502C8.04554 17.502 8.36236 17.3713 8.59656 17.1385Z" fill="black"/>
</svg>
