<svg width="9" height="18" viewBox="0 0 9 18" fill="none" xmlns="http://www.w3.org/2000/svg">
<path d="M0.36926 17.1385C0.252099 17.0223 0.159106 16.884 0.0956451 16.7317C0.0321842 16.5794 -0.000488281 16.416 -0.000488281 16.251C-0.000488281 16.086 0.0321842 15.9226 0.0956451 15.7703C0.159106 15.6179 0.252099 15.4797 0.36926 15.3635L6.09426 9.63849C6.21142 9.52229 6.30441 9.38404 6.36787 9.23171C6.43133 9.07939 6.46401 8.91601 6.46401 8.75099C6.46401 8.58598 6.43133 8.42259 6.36787 8.27027C6.30441 8.11795 6.21142 7.97969 6.09426 7.86349L0.36926 2.13849C0.252099 2.02229 0.159106 1.88404 0.0956451 1.73171C0.0321842 1.57939 -0.000488281 1.41601 -0.000488281 1.25099C-0.000488281 1.08598 0.0321842 0.922594 0.0956451 0.77027C0.159106 0.617946 0.252099 0.479694 0.36926 0.363491C0.603463 0.130677 0.920277 0 1.25051 0C1.58074 0 1.89756 0.130677 2.13176 0.363491L7.86926 6.10099C8.57151 6.80412 8.96596 7.75724 8.96596 8.75099C8.96596 9.74474 8.57151 10.6979 7.86926 11.401L2.13176 17.1385C1.89756 17.3713 1.58074 17.502 1.25051 17.502C0.920277 17.502 0.603463 17.3713 0.36926 17.1385Z" fill="black"/>
</svg>
