<svg width="16" height="16" viewBox="0 0 16 16" fill="none" xmlns="http://www.w3.org/2000/svg">
<path fill-rule="evenodd" clip-rule="evenodd" d="M14.0865 9.43119C14.8596 8.6178 14.8596 7.38203 14.0865 6.56865C12.7827 5.19681 10.5434 3.33325 7.99967 3.33325C5.456 3.33325 3.21667 5.19681 1.91281 6.56865C1.13974 7.38203 1.13974 8.6178 1.91281 9.43119C3.21667 10.803 5.456 12.6666 7.99967 12.6666C10.5434 12.6666 12.7827 10.803 14.0865 9.43119ZM7.99967 9.99992C9.10424 9.99992 9.99967 9.10449 9.99967 7.99992C9.99967 6.89535 9.10424 5.99992 7.99967 5.99992C6.8951 5.99992 5.99967 6.89535 5.99967 7.99992C5.99967 9.10449 6.8951 9.99992 7.99967 9.99992Z" fill="#28303F"/>
</svg>
