<svg width="9" height="19" viewBox="0 0 9 19" fill="none" xmlns="http://www.w3.org/2000/svg">
<path d="M8.59656 18.2476C8.71372 18.1271 8.80671 17.9836 8.87018 17.8256C8.93364 17.6675 8.96631 17.498 8.96631 17.3268C8.96631 17.1556 8.93364 16.986 8.87018 16.828C8.80671 16.6699 8.71372 16.5265 8.59656 16.4059L2.87156 10.4657C2.7544 10.3451 2.66141 10.2017 2.59795 10.0436C2.53449 9.88556 2.50181 9.71604 2.50181 9.54482C2.50181 9.3736 2.53449 9.20408 2.59795 9.04603C2.66141 8.88797 2.7544 8.74453 2.87156 8.62395L8.59656 2.68373C8.71372 2.56316 8.80671 2.41971 8.87018 2.26166C8.93364 2.10361 8.96631 1.93408 8.96631 1.76286C8.96631 1.59165 8.93364 1.42212 8.87018 1.26407C8.80671 1.10602 8.71372 0.962572 8.59656 0.841999C8.36236 0.600433 8.04554 0.464844 7.71531 0.464844C7.38508 0.464844 7.06826 0.600433 6.83406 0.841999L1.09656 6.7952C0.394308 7.52476 -0.00014019 8.51371 -0.00014019 9.54482C-0.00014019 10.5759 0.394308 11.5649 1.09656 12.2944L6.83406 18.2476C7.06826 18.4892 7.38508 18.6248 7.71531 18.6248C8.04554 18.6248 8.36236 18.4892 8.59656 18.2476Z" fill="#7E7E7E"/>
</svg>
