<svg width="11" height="10" viewBox="0 0 11 10" fill="none" xmlns="http://www.w3.org/2000/svg">
<g clip-path="url(#clip0_52_80)">
<path d="M2.9375 9.37521C2.93765 9.20951 3.00375 9.05064 3.12129 8.93354L6.32597 5.73688C6.42297 5.64015 6.49992 5.5253 6.55241 5.3989C6.60491 5.2725 6.63193 5.13703 6.63193 5.00021C6.63193 4.86339 6.60491 4.72792 6.55241 4.60152C6.49992 4.47512 6.42297 4.36028 6.32597 4.26354L3.12547 1.06896C3.01134 0.951084 2.94818 0.793208 2.94961 0.629335C2.95104 0.465462 3.01693 0.308704 3.1331 0.192824C3.24927 0.0769439 3.40642 0.0112133 3.57071 0.00978928C3.73499 0.00836527 3.89326 0.0713618 4.01143 0.185211L7.21194 3.37729C7.64228 3.8074 7.88397 4.39025 7.88397 4.99792C7.88397 5.60559 7.64228 6.18844 7.21194 6.61854L4.00726 9.81521C3.91976 9.90255 3.80828 9.96208 3.68689 9.98629C3.56551 10.0105 3.43965 9.99829 3.32521 9.95122C3.21077 9.90415 3.11288 9.82432 3.04387 9.72181C2.97487 9.61929 2.93786 9.49869 2.9375 9.37521Z" fill="#7E7E7E"/>
</g>
<defs>
<clipPath id="clip0_52_80">
<rect width="10.0251" height="10" fill="white" transform="translate(0.398438)"/>
</clipPath>
</defs>
</svg>
