<svg width="9" height="19" viewBox="0 0 9 19" fill="none" xmlns="http://www.w3.org/2000/svg">
<path d="M0.369748 0.846113C0.252587 0.966686 0.159594 1.11013 0.0961334 1.26818C0.0326725 1.42623 0 1.59576 0 1.76698C0 1.9382 0.0326725 2.10772 0.0961334 2.26577C0.159594 2.42382 0.252587 2.56727 0.369748 2.68784L6.09475 8.62807C6.21191 8.74864 6.3049 8.89209 6.36836 9.05014C6.43182 9.20819 6.4645 9.37771 6.4645 9.54893C6.4645 9.72015 6.43182 9.88967 6.36836 10.0477C6.3049 10.2058 6.21191 10.3492 6.09475 10.4698L0.369748 16.41C0.252587 16.5306 0.159594 16.674 0.0961334 16.8321C0.0326725 16.9901 0 17.1597 0 17.3309C0 17.5021 0.0326725 17.6716 0.0961334 17.8297C0.159594 17.9877 0.252587 18.1312 0.369748 18.2518C0.603951 18.4933 0.920766 18.6289 1.251 18.6289C1.58123 18.6289 1.89804 18.4933 2.13225 18.2518L7.86975 12.2986C8.572 11.569 8.96645 10.58 8.96645 9.54893C8.96645 8.51782 8.572 7.52887 7.86975 6.79931L2.13225 0.846113C1.89804 0.604548 1.58123 0.468956 1.251 0.468956C0.920766 0.468956 0.603951 0.604548 0.369748 0.846113Z" fill="#DDDDDD"/>
</svg>
