<svg width="13" height="12" viewBox="0 0 13 12" fill="none" xmlns="http://www.w3.org/2000/svg">
<path d="M4.89409 8.85368C5.7758 9.73275 7.20536 9.73275 8.08709 8.85371L8.08711 8.85368L9.69868 7.24701C9.99765 6.95912 10.0059 6.48413 9.71716 6.18607C9.4284 5.888 8.95196 5.87975 8.65299 6.16764C8.64671 6.17366 8.64055 6.17983 8.63451 6.18607L7.23819 7.57764L7.22664 0.750312C7.22664 0.335929 6.88969 0 6.47405 0C6.0584 0 5.72145 0.335929 5.72145 0.750312L5.73199 7.56664L4.34672 6.18557C4.04775 5.89769 3.57131 5.90594 3.28255 6.204C3.00087 6.49477 3.00087 6.95575 3.28255 7.24651L4.89409 8.85368Z" fill="white"/>
<path d="M11.75 7.19922C11.3358 7.19922 11 7.53854 11 7.95711V10.2768C10.9997 10.3908 10.9084 10.4831 10.7955 10.4834H2.2045C2.09167 10.4831 2.00026 10.3908 2 10.2768V7.95711C2 7.53854 1.66421 7.19922 1.25 7.19922C0.83579 7.19922 0.5 7.53854 0.5 7.95711V10.2768C0.501102 11.2276 1.2636 11.9981 2.2045 11.9992H10.7955C11.7364 11.9981 12.4989 11.2276 12.5 10.2768V7.95714C12.5 7.53854 12.1642 7.19922 11.75 7.19922Z" fill="white"/>
</svg>
