<svg width="14" height="15" viewBox="0 0 14 15" fill="none" xmlns="http://www.w3.org/2000/svg">
<path d="M5.1266 11.0671C6.15527 12.1659 7.82308 12.1659 8.85177 11.0671L8.8518 11.0671L10.732 9.05876C11.0807 8.6989 11.0904 8.10516 10.7535 7.73258C10.4166 7.36001 9.86079 7.34969 9.51199 7.70955C9.50466 7.71708 9.49747 7.72479 9.49042 7.73258L7.86138 9.47205L7.84791 0.93789C7.84791 0.419911 7.4548 0 6.96988 0C6.48496 0 6.09185 0.419911 6.09185 0.93789L6.10415 9.4583L4.488 7.73197C4.13921 7.37211 3.58336 7.38243 3.24647 7.755C2.91784 8.11847 2.91784 8.69468 3.24647 9.05814L5.1266 11.0671Z" fill="#05153B"/>
<path d="M13.125 9C12.6418 9 12.25 9.42415 12.25 9.94737V12.8469C12.2497 12.9895 12.1431 13.1049 12.0115 13.1052H1.98858C1.85695 13.1049 1.7503 12.9895 1.75 12.8469V9.94737C1.75 9.42415 1.35825 9 0.875002 9C0.391755 9 0 9.42415 0 9.94737V12.8469C0.00128516 14.0355 0.890861 14.9986 1.98858 15H12.0114C13.1092 14.9986 13.9987 14.0355 14 12.847V9.9474C14 9.42415 13.6083 9 13.125 9Z" fill="#05153B"/>
</svg>
